<svg xmlns="http://www.w3.org/2000/svg" xmlns:xlink="http://www.w3.org/1999/xlink" version="1.1" id="layer" x="0px" y="0px" style="enable-background:new -153 -46 652 652;" xml:space="preserve" viewBox="-81.5 24.5 500 500">
<style type="text/css">
	.st0{fill:#B50938;}
	.st1{fill:#FFFFFF;}
</style>
<rect x="-81.5" y="24.5" class="st0" width="500" height="500"/>
<path class="st1" d="M-3,328.8l-6.2-13.8h-19.7l-0.2,0.5c-1.7,4-3.6,8.6-5.3,12.7h-7.3l15.9-34.1c2.6-5.6,4.3-9.5,5.8-13.4l1.7-0.5  l16,34.3c1.9,4.1,4.5,9.5,6.6,13.7L-3,328.8z M-11.7,309.6l-7.4-16.6l-7.3,16.6H-11.7z M47,328.8l-12-18.9h-7.3v8.8  c0,2.6,0.1,7.7,0.3,9.6h-7.4c0.3-3.2,0.5-11.7,0.5-16.1v-14.7c0-4.2-0.1-12.9-0.5-16.1c2.4,0,9.2-0.3,12.3-0.3  c11.7-0.2,18.2,6.3,18,13.7c-0.1,6.1-4,11.6-9.8,13.6l6.8,10c1.8,2.5,5.5,7.7,7,9.5L47,328.8z M27.7,304.4h6.7  c5.1,0.5,9.5-3.6,9.5-8.7c0-5.7-3.5-8.7-10.5-8.7c-2.1,0-4,0.1-5.7,0.2c-0.1,1.3-0.1,2.9-0.1,3.9L27.7,304.4z M104.6,287.1  c-5.2-0.1-9.6-0.1-15.5-0.1c-0.1,1.4-0.1,3.1-0.1,4.2v27.5c0,2.6,0.1,7.7,0.3,9.6h-7.4c0.3-3.2,0.4-11.7,0.4-16.1v-14.5  c0-2.7-0.1-7.1-0.2-10.8c-5.9,0-10.6,0.1-15.7,0.1c0.2-2,0.3-4,0.3-6.1c12.8,0.5,25.6,0.5,38.5,0  C104.8,283.1,104.6,285.1,104.6,287.1 M-34.5,403.7c0.3-3.2,0.5-11.7,0.5-16v-14.7c0-4.2-0.1-12.8-0.5-16c2.5,0,5-0.1,7.4-0.3  c-0.2,1.9-0.3,7.2-0.3,9.8v27.6c0,2.5,0.1,7.7,0.3,9.5H-34.5z M36.3,366.6l-0.5,28c0,2.6-0.1,8,0.1,9.8l-1.7,0.5L3.6,369.9v24.3  c0,2.6,0.1,7.7,0.3,9.5h-7.4c0.4-3.2,0.7-11.7,0.8-16l0.3-15.9c0.1-4.2,0.1-12.1-0.3-15.3l1.8-0.5L30,391.5v-18.4  c0-4.2-0.1-12.8-0.5-16c2.4,0,4.9-0.1,7.3-0.3C36.5,358.7,36.3,364,36.3,366.6 M68.7,404.9c-4.6-0.1-9.2-1.5-13.1-3.9l0.4-7  c3.7,3,8.3,4.8,13.1,5c5,0,8.5-2.4,8.5-7.4c0-9.3-20.2-9.7-20.2-21.9c0.1-7.9,6.8-14.1,14.7-13.6c3.9,0,7.7,1.2,10.9,3.5l-2.2,5.8  c-2.6-2-5.7-3.2-9-3.3c-4.9,0-7.8,2.6-7.8,6.8c0,8.3,20.1,8.7,20.1,21.9C84.3,399.1,77,405.7,68.7,404.9 M137.1,362.8  c-5.2-0.1-10.4-0.1-15.5-0.1c-0.1,1.4-0.1,3.1-0.1,4.2v27.4c0,2.6,0.1,7.7,0.3,9.5h-7.4c0.3-3.2,0.5-11.7,0.5-16v-14.4  c0-2.7-0.1-7-0.2-10.8c-5.9,0-10.6,0.1-15.7,0.1c0.2-2,0.3-4,0.3-6c6.1,0.2,11.7,0.3,19,0.3c7.3,0,13.3-0.1,19.5-0.3  C137.3,358.7,137.2,360.8,137.1,362.8 M155.2,403.7c0.3-3.2,0.5-11.7,0.5-16v-14.7c0-4.2-0.1-12.8-0.5-16c2.5,0,5-0.1,7.4-0.3  c-0.2,1.9-0.3,7.2-0.3,9.8v27.6c0,2.5,0.1,7.7,0.3,9.5H155.2z M217.9,362.8c-5.2-0.1-9.6-0.1-15.5-0.1c-0.1,1.4-0.1,3.1-0.1,4.2  v27.4c0,2.6,0.1,7.7,0.3,9.5h-7.4c0.3-3.2,0.4-11.7,0.4-16v-14.4c0-2.7-0.1-7-0.2-10.8c-5.9,0-10.6,0.1-15.7,0.1c0.2-2,0.3-4,0.3-6  c6.1,0.2,11.7,0.3,19,0.3c7.2,0,13.3-0.1,19.4-0.3C218.2,358.7,218,360.8,217.9,362.8 M276.7,357.2l-14.9,33.9  c-2.5,5.6-4.1,9.5-5.4,13.3l-1.8,0.5l-14.9-34.1c-2-4.6-4.1-9.1-6.3-13.6l7.3-0.5l14.6,34.8l9-21.7c1.6-3.9,3.3-8.5,4.9-12.7H276.7z   M327,362.8c-5.1-0.1-9.6-0.1-15.5-0.1c-0.1,1.4-0.1,3.1-0.1,4.2v27.4c0,2.6,0.1,7.7,0.3,9.5h-7.4c0.3-3.2,0.5-11.7,0.5-16v-14.4  c0-2.7-0.1-7-0.2-10.8c-5.9,0-10.6,0.1-15.7,0.1c0.2-2,0.3-4,0.3-6c6.1,0.2,11.7,0.3,19,0.3c7.2,0,13.3-0.1,19.4-0.3  C327.2,358.7,327,360.8,327,362.8 M374.1,404c-4-0.3-8.9-0.3-13.7-0.3c-4.8,0-9.7,0.1-13.7,0.3c0.3-3.2,0.5-11.7,0.5-16v-15.3  c0-4.3-0.1-12.8-0.5-16c8.8,0.4,17.6,0.4,26.5,0c-0.3,1.9-0.5,3.9-0.5,5.9c-3.9-0.1-8-0.1-12.7-0.1c-2,0-4,0-5.9,0.1  c-0.1,1.2-0.1,2.9-0.1,3.9v10h16.2c-0.1,1.8-0.2,3.6-0.2,5.4h-16v12.3c0,1,0,2.8,0.1,4c1.9,0,3.9,0.1,5.9,0.1  c5.4,0,10.1-0.1,14.6-0.2C374.3,400,374.1,402,374.1,404 M0.2,476.6c-4.4,3.4-9.7,5.3-15.3,5.3c-13,0.1-23.5-10.4-23.3-23.4  c-0.6-14,10.6-25.7,24.6-25.8c4.9,0,9.8,1.5,13.9,4.2l-1.9,6.1c-3.5-2.8-7.9-4.3-12.4-4.3c-10,0-17.9,8.4-17.3,18.4  c0,12.2,7.5,18.8,16.9,18.8c5.8-0.1,11.3-2.5,15.3-6.7L0.2,476.6z M51.2,480.7c0.4-3.2,0.5-11.7,0.5-16.1V459H27.3v12.1  c0,2.5,0.1,7.7,0.3,9.6h-7.4c0.3-3.2,0.5-11.7,0.5-16.1v-14.7c0-4.3-0.1-12.9-0.5-16.1c2.5,0,4.9-0.1,7.4-0.3  c-0.2,2-0.3,7.3-0.3,9.9v10.2h24.5v-3.7c0-4.3-0.1-12.9-0.5-16.1c2.5,0,5-0.1,7.5-0.3c-0.3,2-0.3,7.3-0.3,9.9v27.7  c0,2.5,0.1,7.8,0.3,9.6H51.2z M82.6,480.7c0.3-3.2,0.5-11.7,0.5-16.1v-14.7c0-4.2-0.1-12.8-0.5-16.1c2.5,0,4.9-0.1,7.4-0.3  c-0.2,2-0.3,7.3-0.3,9.9v27.7c0,2.5,0.1,7.8,0.3,9.6H82.6z M148.6,476.6c-4.3,3.4-9.7,5.3-15.3,5.3c-13,0.1-23.5-10.4-23.3-23.4  c-0.6-14,10.6-25.7,24.6-25.8c4.9,0,9.7,1.5,13.8,4.2l-1.9,6.1c-3.5-2.8-7.9-4.3-12.4-4.3c-10,0-17.9,8.4-17.3,18.4  c0,12.2,7.5,18.8,16.9,18.8c5.8-0.1,11.4-2.5,15.3-6.7L148.6,476.6z M201,481.2l-6.2-13.8h-19.6L175,468c-1.8,4-3.6,8.6-5.3,12.7  h-7.3l15.9-34.1c2.6-5.6,4.3-9.5,5.8-13.4l1.7-0.5l16,34.3c1.9,4.1,4.5,9.5,6.6,13.7L201,481.2z M192.3,462l-7.4-16.6l-7.3,16.6  H192.3z M255.1,458.7c2.6,0,4-0.1,6.9-0.3c-0.3,2.5-0.2,9.1-0.2,13.4v5.1c-4.9,3.3-10.7,5.1-16.6,4.9c-13.1,0.2-23.9-10.3-24.1-23.4  c-0.4-14.3,11.1-26,25.4-25.8c5.2,0,10.4,1.5,14.8,4.2l-1.9,6.1c-3.9-2.8-8.6-4.3-13.3-4.3c-10.3-0.4-18.7,8.1-18.1,18.4  c-1,10.3,7.3,19.1,17.7,18.8c3.3,0.1,6.7-0.6,9.7-2.2v-8.1c0-1,0-2.8-0.1-4V458.7z M326.6,456.1c0.9,13.9-10.1,25.7-24.1,25.8  c-12.8,0.1-23.2-10.6-22.7-23.4c-0.9-13.9,10.1-25.7,24.1-25.8C316.7,432.6,327,443.3,326.6,456.1 M319.7,457.2  c0-11.8-7.2-18.8-16.6-18.8c-9.8,0-16.4,8.7-16.4,19.1c0,11.8,7.2,18.8,16.6,18.8C313.1,476.2,319.7,467.6,319.7,457.2"/>
</svg>